<svg xmlns="http://www.w3.org/2000/svg" xmlns:xlink="http://www.w3.org/1999/xlink">
<symbol viewBox="0 0 541 73" id="logoHomePayWhite">
  <title>logoHomePayWhite</title>
<g xmlns="http://www.w3.org/2000/svg" fill="#fff" fill-rule="evenodd"><path d="M281.58 73h.624V.286h-.625zM308.472 10.876h7.486v13.568h13.806V10.876h7.488V45.16h-7.488V31.397h-13.806V45.16h-7.486V10.876M363.257 32.18v-.097c0-3.87-2.772-7.249-6.855-7.249-4.23 0-6.76 3.282-6.76 7.15v.099c0 3.869 2.771 7.249 6.856 7.249 4.23 0 6.759-3.283 6.759-7.152zm-20.907 0v-.097c0-7.542 6.028-13.664 14.148-13.664 8.07 0 14.05 6.025 14.05 13.566v.098c0 7.542-6.028 13.665-14.146 13.665-8.07 0-14.052-6.025-14.052-13.568zM374.821 18.908h7.39v3.723c1.701-2.205 3.939-4.212 7.681-4.212 3.404 0 5.98 1.519 7.342 4.163 2.285-2.693 5.009-4.163 8.555-4.163 5.494 0 8.8 3.33 8.8 9.648V45.16h-7.388V30.515c0-3.525-1.556-5.338-4.329-5.338-2.77 0-4.47 1.813-4.47 5.338V45.16h-7.39V30.515c0-3.525-1.556-5.338-4.329-5.338-2.771 0-4.471 1.813-4.471 5.338V45.16h-7.39V18.908M437.188 29.978c-.435-3.332-2.382-5.583-5.494-5.583-3.06 0-5.056 2.203-5.638 5.583h11.132zm-18.375 2.202v-.097c0-7.493 5.297-13.664 12.881-13.664 8.702 0 12.69 6.808 12.69 14.252 0 .587-.05 1.273-.097 1.96h-18.133c.729 3.378 3.06 5.141 6.367 5.141 2.479 0 4.278-.784 6.32-2.693l4.232 3.77c-2.433 3.037-5.932 4.899-10.65 4.899-7.825 0-13.61-5.534-13.61-13.568zM461.98 29.537c5.638 0 9.335-3.037 9.335-7.543v-.098c0-4.897-3.647-7.444-9.14-7.444h-8.605v15.085h8.41zm-12.252-18.66h12.738c7.682 0 12.738 4.114 12.738 10.872v.098c0 7.396-6.127 11.216-13.37 11.216h-8.264V45.16h-3.842V10.876zM495.278 35.854v-2.449a26.067 26.067 0 0 0-7.39-1.077c-4.717 0-7.34 2.057-7.34 5.24v.097c0 3.184 2.917 5.046 6.32 5.046 4.617 0 8.41-2.841 8.41-6.857zm-18.525 1.96v-.1c0-5.337 4.377-8.177 10.747-8.177 3.208 0 5.493.44 7.729 1.076v-.881c0-4.555-2.77-6.904-7.488-6.904-2.964 0-5.3.782-7.632 1.86l-1.117-3.086c2.77-1.273 5.493-2.106 9.14-2.106 3.547 0 6.27.93 8.117 2.792 1.703 1.715 2.576 4.163 2.576 7.395V45.16h-3.596v-3.821c-1.75 2.302-4.668 4.36-9.09 4.36-4.668 0-9.386-2.694-9.386-7.885zM523.424 19.84h3.985l-10.55 26.152c-2.14 5.24-4.57 7.15-8.363 7.15-2.089 0-3.644-.44-5.347-1.272l1.264-2.988c1.215.637 2.333.93 3.938.93 2.236 0 3.647-1.176 5.153-4.75L502.079 19.84h4.131l9.141 21.108 8.073-21.108M535.648 19.854h.748l1.735 2.71 1.75-2.71h.732v4.937h-.7v-3.783l-1.75 2.679h-.08l-1.751-2.679v3.783h-.684v-4.937zm-5.106 4.216l.413-.497c.51.432 1.066.69 1.734.69.651 0 1.082-.32 1.082-.787 0-.431-.286-.64-1.273-.864-1.099-.241-1.719-.577-1.719-1.428 0-.817.716-1.41 1.75-1.41.701 0 1.29.21 1.8.625l-.399.514c-.429-.336-.906-.529-1.432-.529-.637 0-1.019.32-1.019.738 0 .415.272.657 1.29.88 1.081.242 1.702.61 1.702 1.411 0 .898-.794 1.459-1.798 1.459a3.222 3.222 0 0 1-2.131-.802zM34.048.32C15.241.52 0 16.298 0 35.663c0 9.803 3.953 19.115 10.9 25.795-3.585-6.385-5.472-13.636-5.472-21.072 0-18.57 11.691-34.815 28.62-40.064"/><path d="M14.132 62.88c6.22 5.465 14.146 8.475 22.32 8.475 3.372 0 6.71-.508 9.94-1.511-9.117-.598-17.594-4.287-23.987-10.468-6.714-6.489-10.41-15.036-10.41-24.067 0-15.158 12.72-30.633 27.777-33.791.52-.217 1.07-.424 1.632-.616a33.885 33.885 0 0 0-3.705-.345C20.179 5.25 7.946 21.74 7.946 40.672c0 7.887 2.139 15.566 6.186 22.209"/><path d="M29.924 7.552c-9.639 6.242-15.318 16.245-15.318 27.2 0 17.997 15.3 32.606 34.84 33.274a34.142 34.142 0 0 0 12.508-7.746 30.178 30.178 0 0 1-12.582 2.715c-16.92 0-30.684-13.845-30.684-30.861a30.9 30.9 0 0 1 7.721-20.463 29.11 29.11 0 0 1 3.515-4.12"/><path d="M21.26 31.744l-.001.3c0 15.541 12.984 28.184 28.943 28.184a29.26 29.26 0 0 0 13.004-3.007 32.241 32.241 0 0 0 4.055-5.093c-4.857 3.055-10.472 4.664-16.308 4.664-7.86 0-15.289-2.922-20.916-8.227-4.834-4.56-7.885-10.443-8.776-16.821"/><path d="M64.738 38.088c-.315-.44-.789-.664-1.409-.664-.35 0-.694.065-1.027.197a2.163 2.163 0 0 0-.845.61 14.228 14.228 0 0 1-4.733 3.397c-1.824.814-3.817 1.226-5.922 1.226-1.998 0-3.904-.384-5.666-1.14a14.518 14.518 0 0 1-4.62-3.112c-1.294-1.304-2.334-2.87-3.088-4.651-.752-1.78-1.132-3.702-1.132-5.712 0-2.009.38-3.928 1.131-5.704.757-1.788 1.797-3.364 3.092-4.683a14.279 14.279 0 0 1 4.617-3.141 14.296 14.296 0 0 1 5.666-1.14c2.062 0 4.02.478 5.816 1.42 1.82.955 3.437 2.04 4.776 3.197.412.463.966.698 1.646.698.54 0 1.02-.162 1.427-.48.434-.34.654-.825.654-1.44 0-.361-.09-.728-.268-1.089a3.282 3.282 0 0 0-.583-.848 19.535 19.535 0 0 0-6.051-4.22c-2.295-1.028-4.79-1.549-7.417-1.549-2.589 0-5.053.501-7.326 1.49-2.278.989-4.285 2.36-5.965 4.074a19.481 19.481 0 0 0-4.014 6.036c-.981 2.291-1.48 4.774-1.48 7.379 0 2.61.499 5.094 1.48 7.383.976 2.286 2.327 4.308 4.015 6.009 1.684 1.698 3.69 3.058 5.964 4.042 2.271.99 4.736 1.492 7.326 1.492 2.702 0 5.266-.532 7.62-1.579a18.235 18.235 0 0 0 6.135-4.425c.413-.416.622-.99.622-1.704 0-.5-.148-.961-.44-1.369M82.585 41.623a9.683 9.683 0 0 1-3.894-.79 10.154 10.154 0 0 1-3.2-2.174 10.317 10.317 0 0 1-2.162-3.223 9.947 9.947 0 0 1-.784-3.927 10.205 10.205 0 0 1 2.946-7.205 10.194 10.194 0 0 1 3.2-2.178 9.755 9.755 0 0 1 3.894-.79c1.375 0 2.697.268 3.927.791a10.144 10.144 0 0 1 3.226 2.176c.913.92 1.64 2.013 2.16 3.251.521 1.236.785 2.567.786 3.937-.077 1.472-.388 2.837-.926 4.054a10.314 10.314 0 0 1-2.192 3.196 10.112 10.112 0 0 1-3.169 2.121 9.71 9.71 0 0 1-3.812.761zm13.218-15.746a15.208 15.208 0 0 0-3.117-4.602 15.126 15.126 0 0 0-4.538-3.136 13.137 13.137 0 0 0-5.447-1.17c-2.044 0-3.972.383-5.73 1.138-1.757.757-3.297 1.802-4.576 3.111a14.482 14.482 0 0 0-3.029 4.638 14.725 14.725 0 0 0-1.098 5.653c0 2.066.379 4 1.129 5.744a14.018 14.018 0 0 0 3.091 4.55 14.344 14.344 0 0 0 4.544 2.994c1.715.715 3.583 1.08 5.553 1.08 2.14 0 4.159-.538 5.998-1.597a18.888 18.888 0 0 0 4.1-3.137v2.694c0 .597.21 1.111.622 1.526.411.417.921.629 1.517.629.597 0 1.108-.212 1.518-.628.412-.415.62-.928.62-1.527V31.51c0-1.986-.389-3.881-1.157-5.632zM116.893 17.47c-.43-.409-1.006-.618-1.712-.618-2.095 0-4.058.455-5.838 1.351a15.724 15.724 0 0 0-3.972 2.818v-2.016c0-.599-.209-1.113-.622-1.528a2.069 2.069 0 0 0-1.517-.625c-.595 0-1.105.212-1.513.625-.416.415-.627.93-.627 1.528v24.774c0 .597.21 1.112.624 1.528.409.416.918.628 1.516.628a2.06 2.06 0 0 0 1.518-.627c.412-.417.621-.932.621-1.53v-12.9c.036-1.268.327-2.501.866-3.663a11.217 11.217 0 0 1 2.14-3.118c.87-.897 1.899-1.62 3.057-2.147a8.978 8.978 0 0 1 3.747-.79c.707 0 1.283-.208 1.711-.618a2.05 2.05 0 0 0 .659-1.537c0-.603-.222-1.119-.658-1.534M142.83 29.237H123.2a10.568 10.568 0 0 1 1.123-2.871 9.575 9.575 0 0 1 2.183-2.625 10.75 10.75 0 0 1 2.98-1.755c2.187-.86 4.807-.861 7.002 0a10.86 10.86 0 0 1 2.98 1.755c.876.735 1.621 1.62 2.215 2.629.525.89.91 1.853 1.148 2.867zm3.342-3.451a15.798 15.798 0 0 0-3.144-4.57 14.697 14.697 0 0 0-4.54-3.108 13.328 13.328 0 0 0-5.399-1.14h-.001c-2.042.079-3.967.511-5.72 1.286-1.757.777-3.295 1.822-4.57 3.107a14.371 14.371 0 0 0-3.03 4.55c-.73 1.73-1.1 3.613-1.1 5.598 0 2.067.38 4 1.13 5.744.747 1.747 1.786 3.278 3.09 4.55a14.355 14.355 0 0 0 4.544 2.994c1.716.715 3.586 1.08 5.555 1.08 2.117 0 4.02-.314 5.658-.93 1.648-.62 3.148-1.684 4.442-3.146.413-.414.622-.928.622-1.526a2.1 2.1 0 0 0-.622-1.532 2.073 2.073 0 0 0-1.516-.624c-.595 0-1.105.21-1.513.62a10.486 10.486 0 0 1-3.203 2.123c-1.193.506-2.493.761-3.868.761a9.706 9.706 0 0 1-3.532-.649 10.245 10.245 0 0 1-3.005-1.78 10.283 10.283 0 0 1-2.217-2.687 9.63 9.63 0 0 1-1.105-2.96h22.096c.5 0 .982-.182 1.43-.542.472-.379.711-.922.711-1.612 0-1.99-.402-3.875-1.193-5.607zM153.47 41.259a2.62 2.62 0 0 0-1.926-.803c-.752 0-1.399.27-1.923.802a2.654 2.654 0 0 0-.795 1.935c0 .756.268 1.409.795 1.94a2.62 2.62 0 0 0 1.923.802 2.63 2.63 0 0 0 1.924-.803c.529-.533.796-1.185.796-1.939 0-.751-.267-1.402-.795-1.934M180.743 38.76c-.433-.386-.929-.583-1.475-.583-.594 0-1.105.21-1.513.62a10.575 10.575 0 0 1-3.2 2.125c-1.19.504-2.493.76-3.872.76a9.678 9.678 0 0 1-3.896-.791 10.128 10.128 0 0 1-3.198-2.176 10.24 10.24 0 0 1-2.16-3.222 9.884 9.884 0 0 1-.786-3.924c0-1.392.265-2.723.786-3.955a10.179 10.179 0 0 1 2.162-3.253 10.225 10.225 0 0 1 3.198-2.176 9.7 9.7 0 0 1 3.894-.79c1.379 0 2.68.258 3.871.764a11.772 11.772 0 0 1 3.197 2 2.07 2.07 0 0 0 1.517.623c.511 0 .977-.185 1.386-.552.422-.379.636-.839.636-1.368 0-.399-.254-.904-.802-1.59-.504-.629-1.22-1.261-2.132-1.88-.907-.614-2.004-1.167-3.262-1.644-1.27-.477-2.712-.72-4.305-.72h-.002c-2.046.08-3.971.512-5.721 1.284a14.849 14.849 0 0 0-4.57 3.11 14.339 14.339 0 0 0-3.032 4.548c-.729 1.73-1.1 3.614-1.1 5.6 0 2.06.381 3.992 1.131 5.745.75 1.749 1.79 3.28 3.093 4.55a14.393 14.393 0 0 0 4.543 2.992c1.713.715 3.58 1.078 5.552 1.078 1.69 0 3.218-.223 4.543-.66 1.32-.437 2.45-.961 3.358-1.559.923-.607 1.626-1.236 2.088-1.866.502-.681.735-1.18.735-1.575a1.97 1.97 0 0 0-.664-1.515M198.754 41.623a9.7 9.7 0 0 1-3.893-.79 10.167 10.167 0 0 1-3.2-2.173 10.39 10.39 0 0 1-2.163-3.224 9.939 9.939 0 0 1-.782-3.927c0-1.391.263-2.722.782-3.955a10.251 10.251 0 0 1 2.162-3.25c.911-.92 1.988-1.652 3.2-2.178a9.768 9.768 0 0 1 3.894-.79c1.375 0 2.695.268 3.925.791 1.235.528 2.32 1.26 3.23 2.176a10.279 10.279 0 0 1 2.162 3.251c.518 1.233.781 2.564.781 3.955 0 1.39-.263 2.711-.781 3.926a10.351 10.351 0 0 1-2.162 3.224 10.125 10.125 0 0 1-3.23 2.174 9.898 9.898 0 0 1-3.925.79zm13.219-15.746a15.034 15.034 0 0 0-7.656-7.738 13.14 13.14 0 0 0-5.458-1.17h-.003c-2.04.078-3.964.51-5.72 1.285-1.753.774-3.29 1.82-4.569 3.108a14.358 14.358 0 0 0-3.03 4.55c-.731 1.73-1.102 3.613-1.102 5.597 0 2.065.38 3.998 1.132 5.744a13.973 13.973 0 0 0 3.09 4.55 14.358 14.358 0 0 0 4.545 2.994c1.712.715 3.58 1.08 5.552 1.08 2.009 0 3.909-.385 5.648-1.139a14.245 14.245 0 0 0 4.54-3.115 15.115 15.115 0 0 0 3.06-4.57 13.879 13.879 0 0 0 1.13-5.544c0-1.982-.39-3.877-1.16-5.632zM251.152 22.725a10.164 10.164 0 0 0-2.103-3.145 10.042 10.042 0 0 0-3.12-2.115 9.541 9.541 0 0 0-3.848-.79c-1.673 0-3.21.379-4.573 1.126a10.4 10.4 0 0 0-3.136 2.625 9.925 9.925 0 0 0-3.091-2.625c-1.362-.747-2.899-1.126-4.57-1.126-1.165 0-2.32.288-3.434.856-.804.413-1.503.864-2.087 1.348a2.068 2.068 0 0 0-.619-1.402 2.07 2.07 0 0 0-1.518-.625c-.591 0-1.102.21-1.515.625a2.088 2.088 0 0 0-.624 1.528v24.774c0 .597.21 1.112.623 1.53.412.415.922.626 1.516.626.599 0 1.108-.211 1.518-.626a2.1 2.1 0 0 0 .622-1.53V26.384c.072-1.502.634-2.791 1.67-3.832 1.028-1.04 2.322-1.567 3.847-1.567 1.507 0 2.766.523 3.85 1.597 1.073 1.065 1.653 2.422 1.724 4.02V43.78c0 .597.21 1.112.623 1.53.41.415.921.626 1.518.626.594 0 1.104-.211 1.516-.626.412-.416.622-.93.622-1.53V26.602c0-.763.147-1.493.437-2.173a6.013 6.013 0 0 1 1.179-1.795 5.332 5.332 0 0 1 1.743-1.21 5.544 5.544 0 0 1 4.313 0 5.752 5.752 0 0 1 1.78 1.214 5.75 5.75 0 0 1 1.203 1.79c.289.675.436 1.408.436 2.174V43.78c0 .598.209 1.113.622 1.53.413.415.924.626 1.517.626.594 0 1.105-.211 1.519-.628.412-.419.621-.933.621-1.528V26.602a9.814 9.814 0 0 0-.78-3.877M254.176 19.62h.26c.304 0 .549-.102.549-.35 0-.217-.159-.363-.505-.363a1.27 1.27 0 0 0-.304.03v.683zm-.014 1.338h-.549v-2.386c.217-.029.52-.072.91-.072.447 0 .65.072.809.189a.605.605 0 0 1 .246.509c0 .29-.218.48-.492.567v.03c.231.072.347.261.42.58.072.365.13.496.172.583h-.577c-.073-.087-.116-.29-.188-.582-.044-.247-.188-.363-.491-.363h-.26v.945zm-1.459-1.236c0 1.062.795 1.906 1.85 1.906 1.025.014 1.804-.844 1.804-1.892 0-1.062-.78-1.92-1.833-1.92-1.026 0-1.82.858-1.82 1.906zm4.26 0c0 1.338-1.069 2.4-2.425 2.4-1.358 0-2.441-1.062-2.441-2.4 0-1.338 1.083-2.386 2.455-2.386 1.342 0 2.411 1.048 2.411 2.386z"/></g>

</symbol>

  <symbol xmlns="http://www.w3.org/2000/svg" viewBox="0 0 104 104" id="iconGuarantee">
    <title>iconGuarantee</title>
    <defs><path d="M87.645 56.358l-2.056-8.313c-.283-1.121-.45-2.808-.447-4.46-.002-1.547.145-3.093.393-4.143l1.954-8.336.002-.004c.13-.566.19-1.14.192-1.71-.005-1.491-.402-2.955-1.092-4.262-.694-1.302-1.69-2.462-2.99-3.252l-7.334-4.424c-.958-.574-2.218-1.597-3.354-2.725-1.14-1.122-2.18-2.369-2.767-3.32l-4.512-7.278c-.797-1.277-1.95-2.25-3.245-2.926C61.093.53 59.644.145 58.17.142c-.604 0-1.212.068-1.81.215l-8.312 2.058c-1.124.28-2.811.449-4.464.446-1.546.003-3.092-.144-4.14-.392L31.107.514a7.532 7.532 0 0 0-1.713-.193c-1.492.002-2.957.401-4.261 1.092-1.304.693-2.463 1.69-3.252 2.99l-4.424 7.332c-.575.96-1.598 2.22-2.724 3.357-1.123 1.14-2.37 2.18-3.32 2.764L4.135 22.37c-1.278.795-2.253 1.95-2.929 3.244a9.217 9.217 0 0 0-1.063 4.22c.001.604.068 1.213.217 1.812l2.058 8.311c.278 1.122.447 2.809.443 4.461.004 1.546-.142 3.093-.391 4.144L.515 56.898l.003-.01A7.478 7.478 0 0 0 .32 58.61c.003 1.493.401 2.957 1.092 4.263.694 1.303 1.69 2.462 2.99 3.252l7.336 4.424c.957.575 2.218 1.598 3.354 2.724 1.14 1.123 2.178 2.37 2.764 3.322l4.514 7.276c.795 1.277 1.95 2.25 3.242 2.926 1.297.675 2.746 1.061 4.222 1.063.603 0 1.211-.066 1.81-.215l8.314-2.056c1.118-.281 2.808-.45 4.46-.447 1.546-.002 3.093.144 4.143.393l8.336 1.954c.567.133 1.14.193 1.712.193 1.491-.003 2.957-.402 4.263-1.091 1.302-.695 2.463-1.69 3.252-2.991l4.424-7.331c.575-.96 1.598-2.22 2.724-3.357 1.121-1.14 2.37-2.18 3.32-2.765l7.278-4.513c1.278-.797 2.25-1.952 2.926-3.245.674-1.296 1.06-2.746 1.062-4.22 0-.602-.214-1.811-.214-1.811z" id="ca"/><mask id="cb" x="-8" y="-8" width="103.716" height="103.718"><path fill="#fff" d="M-7.857-7.858H95.859V95.86H-7.857z"/><use xmlns:xlink="http://www.w3.org/1999/xlink" xlink:href="#ca"/></mask></defs><g transform="translate(8 8)" fill="none" fill-rule="evenodd"><use fill="#00BDA3" xmlns:xlink="http://www.w3.org/1999/xlink" xlink:href="#ca"/><use stroke="#FFF" mask="url(#cb)" stroke-width="16" xmlns:xlink="http://www.w3.org/1999/xlink" xlink:href="#ca"/><path d="M44.135 11.903c-17.803 0-32.23 14.429-32.23 32.23 0 17.799 14.427 32.23 32.23 32.23 17.804 0 32.23-14.431 32.23-32.23 0-17.8-14.426-32.23-32.23-32.23zm0 60.81c-15.759 0-28.581-12.82-28.581-28.58 0-15.76 12.822-28.582 28.581-28.582 15.76 0 28.581 12.822 28.581 28.582 0 15.76-12.82 28.58-28.581 28.58z" fill="#FFF"/><path d="M56.84 34.548a1.825 1.825 0 0 0-2.567.265L43.157 48.479l-7.241-6.04a1.824 1.824 0 0 0-2.338 2.802l8.66 7.221a1.823 1.823 0 0 0 2.585-.25l12.282-15.1c.633-.78.517-1.93-.265-2.564z" fill="#FFF"/></g>
  </symbol>

  <symbol xmlns="http://www.w3.org/2000/svg" viewBox="0 0 74 87" id="iconExpertise">
    <title>iconExpertise</title>
    <g transform="translate(-23 -18)" fill="#222" fill-rule="evenodd"><text font-family="Lato-Regular, Lato" font-size="18"><tspan x="33" y="104">YEARS</tspan></text><path d="M23 81h74v1H23z"/><text stroke="#222" font-family="Lato-Hairline, Lato" font-size="70" font-weight="200"><tspan x="20" y="69">25</tspan></text></g>
  </symbol>

  <symbol xmlns="http://www.w3.org/2000/svg" viewBox="0 0 138 138" id="iconGuaranteeProduct">
    <title>iconGuaranteeProduct</title>
    <defs><path d="M85.589 48.045c-.283-1.121-.45-2.808-.447-4.46-.002-1.547.145-3.093.393-4.143l1.954-8.336c.132-.57.193-1.144.194-1.714-.005-1.491-.402-2.955-1.092-4.262-.694-1.302-1.69-2.462-2.99-3.252l-7.334-4.424c-.958-.574-2.218-1.597-3.354-2.725-1.14-1.122-2.18-2.369-2.767-3.32l-4.512-7.278c-.797-1.277-1.95-2.25-3.245-2.926C61.093.53 59.644.145 58.17.142c-.604 0-1.212.068-1.81.215l-8.312 2.058c-1.124.28-2.811.449-4.464.446-1.546.003-3.092-.144-4.14-.392L31.107.514a7.532 7.532 0 0 0-1.713-.193c-1.492.002-2.957.401-4.261 1.092-1.304.693-2.463 1.69-3.252 2.99l-4.424 7.332c-.575.96-1.598 2.22-2.724 3.357-1.123 1.14-2.37 2.18-3.32 2.764L4.135 22.37c-1.278.795-2.253 1.95-2.929 3.244a9.217 9.217 0 0 0-1.063 4.22c.001.604.068 1.213.217 1.812l2.058 8.311c.278 1.122.447 2.809.443 4.461.004 1.546-.142 3.093-.391 4.144L.515 56.898a7.465 7.465 0 0 0-.194 1.712c.003 1.493.401 2.957 1.092 4.263.694 1.303 1.69 2.462 2.99 3.252l7.336 4.424c.957.575 2.218 1.598 3.354 2.724 1.14 1.123 2.178 2.37 2.764 3.322l4.514 7.276c.795 1.277 1.95 2.25 3.242 2.926 1.297.675 2.746 1.061 4.222 1.063.603 0 1.211-.066 1.81-.215l8.314-2.056c1.118-.281 2.808-.45 4.46-.447 1.546-.002 3.093.144 4.143.393l8.336 1.954c.567.133 1.14.193 1.712.193 1.491-.003 2.957-.402 4.263-1.091 1.302-.695 2.463-1.69 3.252-2.991l4.424-7.331c.575-.96 1.598-2.22 2.724-3.357 1.121-1.14 2.37-2.18 3.32-2.765l7.278-4.513c1.278-.797 2.25-1.952 2.926-3.245.674-1.296 1.06-2.746 1.062-4.22 0-.602-.214-1.811-.214-1.811l-2.056-8.313z" id="da"/><mask id="db" x="-25" y="-25" width="137.716" height="137.718"><path fill="#fff" d="M-24.857-24.858h137.716V112.86H-24.857z"/><use xmlns:xlink="http://www.w3.org/1999/xlink" xlink:href="#da"/></mask><mask id="dc" x="-8" y="-8" width="103.716" height="103.718"><path fill="#fff" d="M-7.857-7.858H95.859V95.86H-7.857z"/><use xmlns:xlink="http://www.w3.org/1999/xlink" xlink:href="#da"/></mask></defs><g transform="translate(25 25)" fill="none" fill-rule="evenodd"><use fill="#FFF" xmlns:xlink="http://www.w3.org/1999/xlink" xlink:href="#da"/><use stroke="#00BDA3" mask="url(#db)" stroke-width="50" xmlns:xlink="http://www.w3.org/1999/xlink" xlink:href="#da"/><use stroke="#FFF" mask="url(#dc)" stroke-width="16" xmlns:xlink="http://www.w3.org/1999/xlink" xlink:href="#da"/><use stroke="#FFF" stroke-width="2" xmlns:xlink="http://www.w3.org/1999/xlink" xlink:href="#da"/><path d="M44.135 11.903c-17.803 0-32.23 14.429-32.23 32.23 0 17.799 14.427 32.23 32.23 32.23 17.804 0 32.23-14.431 32.23-32.23 0-17.8-14.426-32.23-32.23-32.23zm0 60.81c-15.759 0-28.581-12.82-28.581-28.58 0-15.76 12.822-28.582 28.581-28.582 15.76 0 28.581 12.822 28.581 28.582 0 15.76-12.82 28.58-28.581 28.58z" fill="#00BDA3"/><path d="M56.84 34.548a1.825 1.825 0 0 0-2.567.265L43.157 48.479l-7.241-6.04a1.824 1.824 0 0 0-2.338 2.802l8.66 7.221a1.823 1.823 0 0 0 2.585-.25l12.282-15.1c.633-.78.517-1.93-.265-2.564z" fill="#00BDA3"/></g>
  </symbol>

  <symbol xmlns="http://www.w3.org/2000/svg" viewBox="0 0 70 65" id="iconHand">
    <title>iconHand</title>
    <g transform="translate(1 1)" stroke="#444" stroke-width="2" fill="none" fill-rule="evenodd" stroke-linecap="round"><path d="M55.271 2.903c-3.883-3.87-10.178-3.87-14.06 0-.938.936-1.65 2.095-2.193 3.366-.543-1.271-1.255-2.43-2.193-3.366-3.883-3.87-10.178-3.87-14.06 0a9.89 9.89 0 0 0 0 14.018c4.22 4.208 16.253 13.893 16.253 13.893S51.05 21.129 55.27 16.92a9.89 9.89 0 0 0 0-14.018z"/><path d="M22.523 46.066c.782-.925 1.959-.799 2.489-.57l14.805 6.383a4.181 4.181 0 0 0 4.325-.504 4.162 4.162 0 0 0-.983-7.134l-20.793-8.973c-4.437-1.676-9.707-1.184-13.773 1.572C.444 42.363-3.236 52.158 3.509 62.367c0 0 2-4.208 5.28-5.97 1.5-.807 3.755-1.498 6.248-1.076 4.815.817 22.685 6.86 22.685 6.86a4.56 4.56 0 0 0 4.092-.778l23.974-18.681a4.159 4.159 0 0 0 .713-5.853 4.19 4.19 0 0 0-5.87-.71L46.066 47.495" stroke-linejoin="round"/></g>
  </symbol>

  <symbol xmlns="http://www.w3.org/2000/svg" viewBox="0 0 84 50" id="iconPayroll">
    <title>iconPayroll</title>
    <g transform="translate(0 .638)" fill="#444" fill-rule="evenodd"><path d="M9.068 34.616v5.682h26.46v-5.682H9.067zm1.5 1.5h6.15v2.682h-6.15v-2.682zm7.65 0h15.81v2.682h-15.81v-2.682z"/><path d="M0 13.704v34.952h68.055V32.839c-.25.012-.497.037-.75.037s-.5-.025-.75-.037v14.317H1.5V15.204h49.943a15.69 15.69 0 0 1 .233-1.5H0z"/><path d="M50.666 42.973v1.5h12.479v-1.5zM9.068 22.068v1.5h43.776a15.908 15.908 0 0 1-.602-1.5H9.068zM9.068 26.247v1.5h33.434v-1.5H9.068zM9.068 30.428v1.5h20.88v-1.5H9.067z"/><path d="M67.305.069c-9.158 0-16.696 7.58-16.696 16.78 0 9.297 7.544 16.778 16.696 16.778C76.555 33.627 84 26.14 84 16.848 84 7.654 76.56.068 67.305.068zm0 1.5c8.438 0 15.195 6.893 15.195 15.28 0 8.493-6.752 15.278-15.195 15.278-8.336 0-15.196-6.79-15.196-15.279 0-8.38 6.866-15.28 15.196-15.28z"/><path d="M75.51 12.021l-12.328 7.764-3.852-3.637-1.031 1.09 4.697 4.438 13.315-8.385z"/></g>
  </symbol>

  <symbol xmlns="http://www.w3.org/2000/svg" viewBox="0 0 55 55" id="iconSaveTime">
    <title>iconSaveTime</title>
    <g transform="translate(1 1)" stroke-width="2" stroke="#444" fill="none" fill-rule="evenodd" stroke-linecap="round" stroke-linejoin="round"><path d="M52.682 26.508c-.092 14.547-11.959 26.266-26.507 26.174C11.628 52.59-.092 40.723 0 26.175.093 11.628 11.96-.092 26.508 0c14.547.092 26.266 11.96 26.174 26.507zM25.002 29.642L25 15M25.026 30h10.758"/></g>
  </symbol>

  <symbol xmlns="http://www.w3.org/2000/svg" viewBox="0 0 62 72" id="iconSupport">
    <title>iconSupport</title>
    <g transform="translate(1 1)" fill="none" fill-rule="evenodd"><path d="M51.4 41.495c.444 2.573 2.21 5.038 4.568 4.65 2.357-.387 4.415-3.48 3.972-6.053-.444-2.572-2.714-4.344-5.072-3.956-2.358.387-3.91 2.786-3.467 5.359" fill="#FFF"/><path d="M51.4 41.495c.444 2.573 2.21 5.038 4.568 4.65 2.357-.387 4.415-3.48 3.972-6.053-.444-2.572-2.714-4.344-5.072-3.956-2.358.387-3.91 2.786-3.467 5.359z" stroke="#4A4A4A" stroke-width="1.987" stroke-linecap="round" stroke-linejoin="round"/><path d="M.075 49.54c.44 2.624 3.404 4.935 5.746 4.54 2.344-.396 3.181-3.346 2.741-5.97-.44-2.624-2.697-4.43-5.041-4.035-2.344.395-3.886 2.842-3.446 5.466" fill="#FFF"/><path d="M.075 49.54c.44 2.624 3.404 4.935 5.746 4.54 2.344-.396 3.181-3.346 2.741-5.97-.44-2.624-2.697-4.43-5.041-4.035-2.344.395-3.886 2.842-3.446 5.466z" stroke="#4A4A4A" stroke-width="2" stroke-linecap="round" stroke-linejoin="round"/><path d="M5.415 48.33C7.732 62.477 20.78 72.017 34.558 69.636c13.778-2.38 23.068-15.778 20.75-29.925-2.318-14.147-15.366-23.686-29.144-21.305-13.777 2.38-23.067 15.777-20.75 29.924" fill="#FFF"/><path d="M5.415 48.33C7.732 62.477 20.78 72.017 34.558 69.636c13.778-2.38 23.068-15.778 20.75-29.925-2.318-14.147-15.366-23.686-29.144-21.305-13.777 2.38-23.067 15.777-20.75 29.924z" stroke="#4A4A4A" stroke-width="2" stroke-linecap="round" stroke-linejoin="round"/><path d="M4.52 15.145c1.191 7.074 7.902 11.843 14.987 10.652 7.087-1.19 11.864-7.888 10.672-14.962C28.986 3.762 22.276-1.01 15.19.182 8.105 1.372 3.328 8.07 4.52 15.145"/><path d="M4.52 15.145c1.191 7.074 7.902 11.843 14.987 10.652 7.087-1.19 11.864-7.888 10.672-14.962C28.986 3.762 22.276-1.01 15.19.182 8.105 1.372 3.328 8.07 4.52 15.145z" stroke="#4A4A4A" stroke-width="2" stroke-linecap="round" stroke-linejoin="round"/><g transform="translate(28.193 57.732)"><path d="M13.711 0C14.381 4.065.62 6.105 0 2.353" fill="#FFF"/><path d="M13.711 0C14.381 4.065.62 6.105 0 2.353" stroke="#4A4A4A" stroke-width="1.987" stroke-linecap="round" stroke-linejoin="round"/></g><path d="M42.696 42.56c.24 1.381 1.388 2.348 2.56 2.159 1.174-.191 1.928-1.464 1.687-2.847-.241-1.381-1.388-2.348-2.56-2.157-1.175.19-1.929 1.464-1.687 2.845M18.117 46.89c.241 1.381 1.388 2.348 2.561 2.158 1.174-.19 1.928-1.463 1.687-2.846-.241-1.381-1.388-2.348-2.561-2.157-1.174.19-1.928 1.463-1.687 2.845" fill="#4A4A4A"/><path d="M55.57 40.568s-30.193 3.18-39.82-13.202l-.203-.145c1.293 7.751-2.918 16.245-9.122 20.447l-.8.683c-.948-2.957-1.084-6.532-1.607-9.67-2.415-14.488 6.211-24.958 20.561-27.395C38.93 8.848 52.117 16.192 54.531 30.68c.58 3.475 2.006 7.074 1.841 10.375l-.802-.487z" fill="#FFF"/><path d="M55.57 40.568s-30.193 3.18-39.82-13.202l-.203-.145c1.293 7.751-2.918 16.245-9.122 20.447l-.8.683c-.948-2.957-1.084-6.532-1.607-9.67-2.415-14.488 6.211-24.958 20.561-27.395C38.93 8.848 52.117 16.192 54.531 30.68c.58 3.475 2.006 7.074 1.841 10.375l-.802-.487zM23.133 10.3a6.716 6.716 0 0 0-2.22-2.607 6.657 6.657 0 0 0-6.747-.514 6.72 6.72 0 0 0-3.323 3.646M54.217 33.11c-9.36.426-21.858-.401-28.916-10.017" stroke="#222" stroke-width="2" stroke-linecap="round" stroke-linejoin="round"/></g>
  </symbol>

  <symbol xmlns="http://www.w3.org/2000/svg" viewBox="0 0 50 56" id="iconTaxFilings">
    <title>iconTaxFilings</title>
    <g fill="#444" fill-rule="evenodd"><path d="M14.831 21.885l5.77 5.15h27.476v27.034H1.923V21.885h12.908zm0-1.931H2.244C1.18 19.954 0 20.614 0 21.68v32.653C0 55.399 1.181 56 2.244 56h46.153C49.46 56 50 55.399 50 54.332V26.946c0-1.066-.54-1.843-1.603-1.843H21.344l-5.22-4.705c-.353-.323-.814-.444-1.293-.444z"/><path d="M43.91 26.713a.963.963 0 0 1-.961-.966V7.08c0-.533.43-.965.961-.965.531 0 .962.432.962.965v18.667c0 .534-.431.966-.962.966zM37.18 11.586H12.82a.963.963 0 0 1-.961-.965c0-.534.43-.966.962-.966h24.358c.531 0 .962.432.962.966 0 .533-.43.965-.962.965zM37.18 16.736H12.82a.963.963 0 0 1-.961-.966c0-.533.43-.965.962-.965h24.358c.531 0 .962.432.962.965 0 .534-.43.966-.962.966z"/><path d="M44.465 5.961L38.144.248a.957.957 0 0 0-.798-.23.88.88 0 0 0-.167-.018H6.09a.963.963 0 0 0-.96.966v18.988c0 .534.43.966.96.966a.963.963 0 0 0 .962-.966V1.931h29.487v4.828c0 .533.431.965.962.965h6.423a.963.963 0 0 0 .962-.965.964.964 0 0 0-.42-.798z"/></g>
  </symbol>

  <symbol xmlns="http://www.w3.org/2000/svg" viewBox="0 0 25 18" id="mobileTickMark">
    <title>mobileTickMark</title>
    <g transform="translate(3 3)" stroke-width="4.666" stroke="#444" fill="none" fill-rule="evenodd" stroke-linecap="round"><path d="M6.91 12L19 0M6.91 12L0 5.143"/></g>
  </symbol>

  <symbol xmlns="http://www.w3.org/2000/svg" viewBox="0 0 363 82" id="ctaLogIn">
    <title>ctaLogIn</title>
    <g transform="translate(-154 1)" fill="none" fill-rule="evenodd"><rect stroke="#444" x="155" width="361" height="80" rx="40"/><text font-family="Lato-Regular, Lato" font-size="36" fill="#444"><tspan x="288.776" y="45">Log in</tspan></text></g>
  </symbol>
</svg>
